HIERARCHY
ROOT Hips
{
	OFFSET -0.001795 -0.223333 0.028219
	CHANNELS 6 Xposition Yposition Zposition Zrotation Yrotation Xrotation 
	JOINT LeftUpLeg
	{
		OFFSET 0.069520 -0.091406 -0.006815
		CHANNELS 3 Zrotation Yrotation Xrotation
		JOINT LeftLeg
		{
			OFFSET 0.034277 -0.375199 -0.004496
			CHANNELS 3 Zrotation Yrotation Xrotation
			JOINT LeftFoot
			{
				OFFSET -0.013596 -0.397961 -0.043693
				CHANNELS 3 Zrotation Yrotation Xrotation
				JOINT LeftToe
				{
					OFFSET 0.026358 -0.055791 0.119288
					CHANNELS 3 Zrotation Yrotation Xrotation
					End Site
					{
						OFFSET 0.000000 0.000000 0.000000
					}
				}
			}
		}
	}
	JOINT RightUpLeg
	{
		OFFSET -0.067670 -0.090522 -0.004320
		CHANNELS 3 Zrotation Yrotation Xrotation
		JOINT RightLeg
		{
			OFFSET -0.038290 -0.382569 -0.008850
			CHANNELS 3 Zrotation Yrotation Xrotation
			JOINT RightFoot
			{
				OFFSET 0.015774 -0.398415 -0.042312
				CHANNELS 3 Zrotation Yrotation Xrotation
				JOINT RightToe
				{
					OFFSET -0.025372 -0.048144 0.123348
					CHANNELS 3 Zrotation Yrotation Xrotation
					End Site
					{
						OFFSET 0.000000 0.000000 0.000000
					}
				}
			}
		}
	}
	JOINT Spine
	{
		OFFSET -0.002533 0.108963 -0.026696
		CHANNELS 3 Zrotation Yrotation Xrotation
		JOINT Spine1
		{
			OFFSET 0.005487 0.135180 0.001092
			CHANNELS 3 Zrotation Yrotation Xrotation
			JOINT Spine2
			{
				OFFSET 0.001457 0.052922 0.025425
				CHANNELS 3 Zrotation Yrotation Xrotation
				JOINT Neck
				{
					OFFSET -0.002778 0.213870 -0.042857
					CHANNELS 3 Zrotation Yrotation Xrotation
					JOINT Head
					{
						OFFSET 0.005152 0.064970 0.051349
						CHANNELS 3 Zrotation Yrotation Xrotation
						End Site
						{
							OFFSET 0.000000 0.000000 0.000000
						}
					}
				}
				JOINT LeftShoulder
				{
					OFFSET 0.078845 0.121749 -0.034090
					CHANNELS 3 Zrotation Yrotation Xrotation
					JOINT LeftArm
					{
						OFFSET 0.090977 0.030469 -0.008868
						CHANNELS 3 Zrotation Yrotation Xrotation
						JOINT LeftForeArm
						{
							OFFSET 0.259612 -0.012772 -0.027456
							CHANNELS 3 Zrotation Yrotation Xrotation
							JOINT LeftHand
							{
								OFFSET 0.249234 0.008986 -0.001171
								CHANNELS 3 Zrotation Yrotation Xrotation
								End Site
								{
									OFFSET 0.000000 0.000000 0.000000
								}
							}
						}
					}
				}
				JOINT RightShoulder
				{
					OFFSET -0.081759 0.118833 -0.038615
					CHANNELS 3 Zrotation Yrotation Xrotation
					JOINT RightArm
					{
						OFFSET -0.096012 0.032551 -0.009143
						CHANNELS 3 Zrotation Yrotation Xrotation
						JOINT RightForeArm
						{
							OFFSET -0.253742 -0.013329 -0.021401
							CHANNELS 3 Zrotation Yrotation Xrotation
							JOINT RightHand
							{
								OFFSET -0.255298 0.007772 -0.005559
								CHANNELS 3 Zrotation Yrotation Xrotation
								End Site
								{
									OFFSET 0.000000 0.000000 0.000000
								}
							}
						}
					}
				}
			}
		}
	}
}
MOTION
Frames: 13
Frame Time: 0.050000
0.000000 0.950534 0.000000 1.741727 16.635928 -1.118448 0.493703 -0.456371 -5.308762 -8.499301 -0.394171 38.285992 3.812711 7.837441 0.301800 0.000000 0.000000 0.000000 7.343700 1.468116 -9.478004 -0.531416 0.218392 13.867470 -2.976390 -7.948073 3.551976 0.000000 0.000000 0.000000 2.039539 -0.461880 6.937852 2.215082 -0.557152 -5.301067 -3.802285 -0.737608 9.593592 8.126672 -4.598642 -8.871565 0.000000 0.000000 0.000000 -17.459651 0.804087 -3.987407 -54.893555 1.416774 -7.476753 -11.806873 -27.458354 3.355237 0.000000 0.000000 0.000000 16.790357 -2.981460 -1.062308 55.475634 3.054992 -4.635681 5.588223 28.757779 3.017768 0.000000 0.000000 0.000000 
0.003785 0.951337 0.025749 1.790737 15.915753 -1.449201 3.644619 -0.927292 -11.842213 -14.655271 2.077645 52.102308 1.479792 5.677669 5.659191 0.000000 0.000000 0.000000 7.123025 1.415104 -9.147573 0.083128 0.019377 16.903578 -3.456271 -8.911794 -0.560670 0.000000 0.000000 0.000000 3.133189 -0.611934 7.851806 0.955030 0.004792 -5.732331 -3.167419 -0.287997 9.703282 7.082342 -3.407395 -10.860332 0.000000 0.000000 0.000000 -17.229105 -0.002838 -3.512578 -54.977758 -0.664822 -6.576560 -11.840866 -27.339846 3.364789 0.000000 0.000000 0.000000 14.864266 -4.472969 -1.854736 56.728697 3.855385 -4.186467 7.461914 28.566456 3.477600 0.000000 0.000000 0.000000 
0.007552 0.953289 0.049730 2.019639 13.802538 -2.107628 5.549236 -1.536773 -21.126548 -18.960493 6.122849 66.045285 3.026880 10.076395 12.332011 0.000000 0.000000 0.000000 7.299335 1.133267 -7.119801 -1.260713 0.499143 16.181694 -2.641638 -6.737191 -0.826127 0.000000 0.000000 0.000000 3.177410 -0.664782 8.620475 0.301660 0.315452 -6.889368 -2.749107 0.697646 10.760849 6.396151 -3.099902 -10.094259 0.000000 0.000000 0.000000 -18.630089 -0.100760 -3.697155 -53.054646 -0.274299 -6.464388 -12.059477 -27.362705 3.456098 0.000000 0.000000 0.000000 15.183877 -2.756637 -0.960366 55.237903 4.200970 -4.160978 8.549976 28.643752 3.727455 0.000000 0.000000 0.000000 
0.011672 0.954325 0.073244 2.469909 12.945118 -3.661514 6.746551 -1.870136 -27.382594 -20.190981 8.637867 74.755395 4.327326 12.029229 13.116449 0.000000 0.000000 0.000000 7.338098 0.596591 -3.546038 -1.420749 0.580991 15.868762 -1.558443 -3.652142 -1.847797 0.000000 0.000000 0.000000 2.040434 -0.702720 10.422677 0.698437 0.077645 -5.859435 -2.179916 1.863868 9.507885 7.929806 -4.102873 -10.345296 0.000000 0.000000 0.000000 -20.468489 0.421482 -4.512508 -50.868920 0.410751 -6.184913 -13.831261 -28.966826 4.042392 0.000000 0.000000 0.000000 15.561473 -2.781628 -0.939264 52.767727 4.922591 -3.717032 11.229086 29.503689 4.543716 0.000000 0.000000 0.000000 
0.016015 0.956991 0.097285 3.149095 10.438894 -4.599144 7.092916 -2.111910 -32.957841 -18.428230 9.230468 79.053942 5.743062 13.910216 11.527985 0.000000 0.000000 0.000000 7.355584 0.087999 -0.519290 -2.853101 1.049272 15.577505 -0.447025 -0.142130 -2.896711 0.000000 0.000000 0.000000 0.924581 -0.663083 11.627130 0.952748 -0.095248 -5.486125 -1.780285 3.405917 8.730863 7.571442 -3.832889 -10.301550 0.000000 0.000000 0.000000 -20.633373 -0.254842 -4.207984 -50.400641 0.518829 -6.083204 -13.038421 -28.152917 3.724584 0.000000 0.000000 0.000000 16.051382 -2.472803 -0.814829 51.757661 5.501075 -3.411607 10.956166 30.888466 4.693927 0.000000 0.000000 0.000000 
0.020936 0.957671 0.122220 3.842616 7.389781 -5.066718 6.758990 -2.199782 -36.873198 -14.940598 7.632906 78.315838 3.716845 10.084682 8.795009 0.000000 0.000000 0.000000 6.694336 -0.294216 1.722521 -3.449518 1.302638 15.552560 0.904277 4.334300 -3.791381 0.000000 0.000000 0.000000 0.046765 -0.550033 11.722241 0.976270 -0.162951 -5.379387 -1.144437 4.149689 8.873713 6.961239 -3.422213 -10.601515 0.000000 0.000000 0.000000 -21.540013 0.149644 -4.305886 -49.897046 0.708647 -6.130148 -13.290901 -28.273487 3.895296 0.000000 0.000000 0.000000 16.107323 -1.436326 -0.475280 51.738094 6.473952 -3.031781 10.729835 31.357305 4.635089 0.000000 0.000000 0.000000 
0.026384 0.956708 0.147989 4.204640 3.933363 -5.246582 5.732813 -2.209690 -38.647055 -10.242607 4.535734 73.026144 2.186262 7.068227 7.473268 0.000000 0.000000 0.000000 6.044178 -0.605127 3.676951 -4.037459 1.574317 15.923297 2.035254 8.536092 -4.728302 0.000000 0.000000 0.000000 0.037052 -0.498941 11.550237 0.749609 -0.146410 -4.797814 -0.832476 5.162337 8.552350 6.942180 -3.248985 -11.731093 0.000000 0.000000 0.000000 -21.190749 0.062993 -3.936267 -50.504616 1.203420 -6.474164 -12.606670 -27.990420 3.754906 0.000000 0.000000 0.000000 15.993721 -1.110688 -0.499393 51.728077 7.550508 -2.518443 10.096890 32.084253 4.513698 0.000000 0.000000 0.000000 
0.032023 0.953664 0.174507 4.142660 0.643748 -5.290349 3.852306 -2.389216 -38.488002 -4.912765 1.096438 63.592870 0.516870 3.177593 5.126067 0.000000 0.000000 0.000000 5.693457 -0.903921 5.714677 -5.242658 1.963729 15.884170 2.993378 12.664072 -5.823030 0.000000 0.000000 0.000000 0.215598 -0.473516 11.459346 0.316236 -0.018323 -4.399478 0.103187 5.426827 8.614923 6.351897 -2.833222 -12.584284 0.000000 0.000000 0.000000 -22.340906 0.806256 -4.097236 -50.119567 1.814295 -6.736503 -13.804498 -28.708506 4.287387 0.000000 0.000000 0.000000 15.403955 -0.196186 -0.342164 52.058432 8.636310 -1.999463 9.979077 33.343523 4.555582 0.000000 0.000000 0.000000 
0.037242 0.949962 0.201797 4.246845 -2.827327 -4.861812 2.018481 -2.413495 -36.088839 -1.218972 -0.423498 49.949790 -1.183006 -0.905919 3.363992 0.000000 0.000000 0.000000 5.182536 -1.072054 7.164063 -6.285382 2.272147 15.589258 3.802256 15.681311 -6.036274 0.000000 0.000000 0.000000 0.385573 -0.438005 11.135078 0.771267 -0.271150 -4.273451 0.062690 5.534291 8.619455 5.301321 -2.087312 -13.810273 0.000000 0.000000 0.000000 -22.963025 1.574799 -4.138996 -50.157930 2.084268 -6.948022 -14.552340 -28.463270 4.575841 0.000000 0.000000 0.000000 15.324553 0.661232 -0.236725 51.959245 9.941227 -1.394188 9.269955 33.590176 4.235503 0.000000 0.000000 0.000000 
0.041555 0.944625 0.230297 3.815450 -5.979574 -4.152155 0.852768 -2.268227 -32.976336 1.153751 -0.994130 35.145082 -4.024481 -6.132992 4.218082 0.000000 0.000000 0.000000 5.450614 -1.217776 8.165706 -7.571651 2.702555 15.968101 3.904228 17.309763 -6.937789 0.000000 0.000000 0.000000 0.519622 -0.405404 10.685032 0.716542 -0.286589 -4.220207 1.336001 5.406091 8.725088 5.300553 -1.985487 -16.002399 0.000000 0.000000 0.000000 -23.235167 2.046169 -3.853646 -50.901462 2.231359 -7.265199 -15.357433 -28.208156 4.901217 0.000000 0.000000 0.000000 14.528749 1.046711 -0.397004 52.200830 10.406444 -1.111725 9.221395 34.278660 4.127343 0.000000 0.000000 0.000000 
0.045034 0.940329 0.260692 3.437358 -9.091112 -3.782637 -0.428414 -2.161926 -28.996183 2.866636 -1.172197 21.961938 -7.145506 -10.840926 6.675871 0.000000 0.000000 0.000000 4.746509 -1.302102 9.651187 -7.597007 2.709029 15.562542 4.547268 20.003802 -7.241268 0.000000 0.000000 0.000000 0.720936 -0.399841 10.883880 0.443501 -0.198912 -4.744133 1.800599 4.953647 9.595068 5.448277 -2.248716 -16.658241 0.000000 0.000000 0.000000 -23.558071 1.510634 -2.883605 -51.477668 0.942963 -7.054608 -15.237019 -28.087156 5.039227 0.000000 0.000000 0.000000 14.742432 1.371617 -0.658400 53.058010 11.172929 -0.797310 9.049495 34.996992 3.969946 0.000000 0.000000 0.000000 
0.047729 0.937053 0.294027 2.902983 -12.231706 -2.873174 -0.828911 -1.962735 -27.318268 3.815931 -1.168809 15.677178 -9.935077 -14.627832 8.970356 0.000000 0.000000 0.000000 4.289557 -1.287337 10.335079 -7.659008 2.813041 15.785554 4.936393 20.426145 -6.522169 0.000000 0.000000 0.000000 0.663267 -0.350171 10.057550 0.622292 -0.315136 -4.621446 1.924096 5.322473 10.154638 7.018704 -3.234002 -17.721095 0.000000 0.000000 0.000000 -23.853395 0.062751 -1.614018 -52.116807 -0.213331 -6.808748 -14.546659 -28.493790 5.051100 0.000000 0.000000 0.000000 16.136959 1.868666 -0.801447 52.984877 11.212897 -0.778993 7.448233 33.837175 3.239237 0.000000 0.000000 0.000000 
0.049535 0.934643 0.331272 2.359513 -15.615665 -1.813841 -0.973097 -1.726661 -25.976154 4.474831 -1.220305 15.051605 -9.844037 -14.324671 9.509857 0.000000 0.000000 0.000000 3.001274 -1.094975 10.538430 -7.236876 2.960930 16.982527 6.032988 22.493507 -5.495091 0.000000 0.000000 0.000000 0.674178 -0.308710 8.987510 0.230985 -0.179900 -4.034288 2.308132 5.524886 10.081651 6.824379 -3.305207 -17.543681 0.000000 0.000000 0.000000 -23.746703 -0.245517 -0.896036 -52.403880 -1.528008 -6.381827 -13.889678 -28.838979 5.065215 0.000000 0.000000 0.000000 16.902072 1.450214 -1.479345 53.238485 8.994656 -1.664501 7.510291 34.282365 3.136117 0.000000 0.000000 0.000000 
